<mxfile host="app.diagrams.net" modified="2022-03-27T17:41:10.161Z" agent="5.0 (Windows NT 10.0; Win64; x64) AppleWebKit/537.36 (KHTML, like Gecko) Chrome/99.0.4844.82 Safari/537.36" etag="y_sK3AW08wsqbRZJ8YHm" version="17.2.4" type="github">
  <diagram id="RAr_b3olhJMqBz3pN34O" name="Page-1">
    <mxGraphModel dx="1385" dy="655" grid="1" gridSize="10" guides="1" tooltips="1" connect="1" arrows="1" fold="1" page="1" pageScale="1" pageWidth="850" pageHeight="1100" math="0" shadow="0">
      <root>
        <mxCell id="0" />
        <mxCell id="1" parent="0" />
        <mxCell id="61tEK-UeMne0tNiwPqiA-2" value="" style="html=1;points=[];perimeter=orthogonalPerimeter;" vertex="1" parent="1">
          <mxGeometry x="130" y="200" width="20" height="80" as="geometry" />
        </mxCell>
        <mxCell id="61tEK-UeMne0tNiwPqiA-3" value=":Reader" style="shape=umlLifeline;perimeter=lifelinePerimeter;whiteSpace=wrap;html=1;container=1;collapsible=0;recursiveResize=0;outlineConnect=0;" vertex="1" parent="1">
          <mxGeometry x="280" y="80" width="80" height="120" as="geometry" />
        </mxCell>
        <mxCell id="61tEK-UeMne0tNiwPqiA-4" value="" style="shape=umlLifeline;participant=umlActor;perimeter=lifelinePerimeter;whiteSpace=wrap;html=1;container=1;collapsible=0;recursiveResize=0;verticalAlign=top;spacingTop=36;outlineConnect=0;" vertex="1" parent="1">
          <mxGeometry x="130" y="80" width="20" height="120" as="geometry" />
        </mxCell>
        <mxCell id="61tEK-UeMne0tNiwPqiA-5" value="" style="html=1;points=[];perimeter=orthogonalPerimeter;" vertex="1" parent="1">
          <mxGeometry x="310" y="200" width="20" height="160" as="geometry" />
        </mxCell>
        <mxCell id="61tEK-UeMne0tNiwPqiA-8" value=":Calculator" style="shape=umlLifeline;perimeter=lifelinePerimeter;whiteSpace=wrap;html=1;container=1;collapsible=0;recursiveResize=0;outlineConnect=0;" vertex="1" parent="1">
          <mxGeometry x="440" y="80" width="80" height="120" as="geometry" />
        </mxCell>
        <mxCell id="61tEK-UeMne0tNiwPqiA-9" value="" style="html=1;points=[];perimeter=orthogonalPerimeter;" vertex="1" parent="1">
          <mxGeometry x="470" y="200" width="20" height="160" as="geometry" />
        </mxCell>
        <mxCell id="61tEK-UeMne0tNiwPqiA-10" value=":Plus()" style="shape=umlLifeline;perimeter=lifelinePerimeter;whiteSpace=wrap;html=1;container=1;collapsible=0;recursiveResize=0;outlineConnect=0;" vertex="1" parent="1">
          <mxGeometry x="600" y="120" width="80" height="160" as="geometry" />
        </mxCell>
        <mxCell id="61tEK-UeMne0tNiwPqiA-11" value="" style="html=1;points=[];perimeter=orthogonalPerimeter;" vertex="1" parent="1">
          <mxGeometry x="630" y="280" width="20" height="80" as="geometry" />
        </mxCell>
        <mxCell id="61tEK-UeMne0tNiwPqiA-12" value="(+ 2 3)" style="html=1;verticalAlign=bottom;endArrow=block;rounded=0;" edge="1" parent="1" target="61tEK-UeMne0tNiwPqiA-9">
          <mxGeometry width="80" relative="1" as="geometry">
            <mxPoint x="330" y="240" as="sourcePoint" />
            <mxPoint x="430" y="240" as="targetPoint" />
          </mxGeometry>
        </mxCell>
        <mxCell id="61tEK-UeMne0tNiwPqiA-13" value="(+ 2 3)" style="html=1;verticalAlign=bottom;endArrow=block;rounded=0;" edge="1" parent="1">
          <mxGeometry width="80" relative="1" as="geometry">
            <mxPoint x="490" y="300" as="sourcePoint" />
            <mxPoint x="630" y="300" as="targetPoint" />
          </mxGeometry>
        </mxCell>
        <mxCell id="61tEK-UeMne0tNiwPqiA-14" value="5" style="html=1;verticalAlign=bottom;endArrow=block;rounded=0;" edge="1" parent="1" target="61tEK-UeMne0tNiwPqiA-9">
          <mxGeometry width="80" relative="1" as="geometry">
            <mxPoint x="630" y="340" as="sourcePoint" />
            <mxPoint x="640" y="270" as="targetPoint" />
          </mxGeometry>
        </mxCell>
        <mxCell id="61tEK-UeMne0tNiwPqiA-15" value="5" style="html=1;verticalAlign=bottom;endArrow=block;rounded=0;" edge="1" parent="1">
          <mxGeometry width="80" relative="1" as="geometry">
            <mxPoint x="470" y="320" as="sourcePoint" />
            <mxPoint x="330" y="320" as="targetPoint" />
          </mxGeometry>
        </mxCell>
        <mxCell id="61tEK-UeMne0tNiwPqiA-16" value="5" style="html=1;verticalAlign=bottom;endArrow=block;rounded=0;entryX=1.063;entryY=0.75;entryDx=0;entryDy=0;entryPerimeter=0;" edge="1" parent="1" target="61tEK-UeMne0tNiwPqiA-2">
          <mxGeometry width="80" relative="1" as="geometry">
            <mxPoint x="310" y="260" as="sourcePoint" />
            <mxPoint x="180" y="260" as="targetPoint" />
          </mxGeometry>
        </mxCell>
        <mxCell id="61tEK-UeMne0tNiwPqiA-17" value="Add Instructions: (+ 2 3)" style="html=1;verticalAlign=bottom;endArrow=block;rounded=0;entryX=-0.104;entryY=0.125;entryDx=0;entryDy=0;entryPerimeter=0;" edge="1" parent="1" source="61tEK-UeMne0tNiwPqiA-2" target="61tEK-UeMne0tNiwPqiA-5">
          <mxGeometry width="80" relative="1" as="geometry">
            <mxPoint x="160" y="220" as="sourcePoint" />
            <mxPoint x="290" y="220" as="targetPoint" />
          </mxGeometry>
        </mxCell>
      </root>
    </mxGraphModel>
  </diagram>
</mxfile>
